<svg xmlns="http://www.w3.org/2000/svg" version="1.1" xmlns:xlink="http://www.w3.org/1999/xlink" xmlns:svgjs="http://svgjs.dev/svgjs" width="1000" height="1000" viewBox="0 0 1000 1000"><rect width="1000" height="1000" fill="#fbeaab"></rect><g transform="matrix(0.7,0,0,0.7,149.57576387818295,282.1265587044535)"><svg viewBox="0 0 396 247" data-background-color="#fbeaab" preserveAspectRatio="xMidYMid meet" height="623" width="1000" xmlns="http://www.w3.org/2000/svg" xmlns:xlink="http://www.w3.org/1999/xlink"><g id="tight-bounds" transform="matrix(1,0,0,1,0.23999645452397544,-0.09999999999999432)"><svg viewBox="0 0 395.52 247.2" height="247.2" width="395.52"><g><svg></svg></g><g><svg viewBox="0 0 395.52 247.2" height="247.2" width="395.52"><g><g><path xmlns="http://www.w3.org/2000/svg" d="M162.418 65.659c-1.586-1.586-4.463-3.738-8.632-6.456-4.214-2.719-9.311-5.324-15.292-7.816-6.026-2.492-12.551-4.712-19.574-6.661-7.023-1.903-14.159-2.855-21.409-2.854-12.687 0-22.247 2.379-28.681 7.136-6.479 4.758-9.719 11.441-9.72 20.05 0 6.57 2.039 11.781 6.117 15.632 4.078 3.851 10.195 7.136 18.351 9.855 3.516 1.172 7.411 2.386 11.685 3.642l-81.119 0c-2.193-6.321-3.289-13.538-3.289-21.653 0-16.538 3.919-30.426 11.758-41.663 7.793-11.192 18.373-19.687 31.74-25.487 13.367-5.754 28.206-8.632 44.517-8.632 11.328 0 22.043 1.246 32.148 3.739 10.059 2.492 19.506 5.777 28.342 9.855 8.836 4.078 16.765 8.496 23.787 13.253zM191.643 174.744c0 12.913-2.379 23.947-7.136 33.099-4.758 9.198-11.328 16.629-19.71 22.293-8.382 5.664-17.898 9.787-28.546 12.37-10.648 2.628-21.976 3.942-33.982 3.942-12.007 0-24.014-1.246-36.022-3.739-12.007-2.492-23.561-6.072-34.663-10.738-11.101-4.622-21.296-10.217-30.584-16.788l20.729-40.439c2.039 2.039 5.664 4.712 10.875 8.02 5.211 3.262 11.554 6.525 19.03 9.787 7.476 3.308 15.632 6.094 24.468 8.36 8.836 2.266 17.784 3.398 26.846 3.398 12.687 0 22.315-2.152 28.886-6.457 6.57-4.304 9.855-10.421 9.855-18.35 0-7.25-2.605-12.913-7.817-16.992-5.211-4.078-12.46-7.657-21.748-10.738-2.736-0.894-5.619-1.814-8.649-2.759h83.986c2.788 7.285 4.182 15.862 4.182 25.731zM273.881 202.61h120.639v41.119h-167.535l0-94.716 46.896 0zM226.985 2.452h164.477v41.119h-117.581v54.616l-46.896 0z" fill="#454545" fill-rule="nonzero" stroke="none" stroke-width="1" stroke-linecap="butt" stroke-linejoin="miter" stroke-miterlimit="10" stroke-dasharray="" stroke-dashoffset="0" font-family="none" font-weight="none" font-size="none" text-anchor="none" style="mix-blend-mode: normal" data-fill-palette-color="tertiary"></path></g></g><g transform="matrix(1,0,0,1,0,103.92830379746835)"><svg viewBox="0 0 395.52 39.34339240506329" height="39.34339240506329" width="395.52"><g><svg viewBox="0 0 395.52 39.34339240506329" height="39.34339240506329" width="395.52"><g><svg viewBox="0 0 395.52 39.34339240506329" height="39.34339240506329" width="395.52"><g><svg viewBox="0 0 395.52 39.34339240506329" height="39.34339240506329" width="395.52"><g id="textblocktransform"><svg viewBox="0 0 395.52 39.34339240506329" height="39.34339240506329" width="395.52" id="textblock"><g><svg viewBox="0 0 395.52 39.34339240506329" height="39.34339240506329" width="395.52"><g transform="matrix(1,0,0,1,0,0)"><svg width="395.52" viewBox="1.100000023841858 -36.5 473.9599914550781 47.150001525878906" height="39.34339240506329" data-palette-color="#454545"><path d="M27.9-31.8L24.85-26.2Q24.5-26.55 23.58-27.15 22.65-27.75 21.33-28.3 20-28.85 18.45-29.28 16.9-29.7 15.3-29.7L15.3-29.7Q12.5-29.7 11.08-28.65 9.65-27.6 9.65-25.7L9.65-25.7Q9.65-24.25 10.55-23.4 11.45-22.55 13.25-21.95 15.05-21.35 17.75-20.65L17.75-20.65Q21.25-19.8 23.83-18.57 26.4-17.35 27.78-15.38 29.15-13.4 29.15-10.15L29.15-10.15Q29.15-7.3 28.1-5.28 27.05-3.25 25.2-2 23.35-0.75 21-0.18 18.65 0.4 16 0.4L16 0.4Q13.35 0.4 10.7-0.15 8.05-0.7 5.6-1.73 3.15-2.75 1.1-4.2L1.1-4.2 4.15-10.15Q4.6-9.7 5.75-8.97 6.9-8.25 8.55-7.53 10.2-6.8 12.15-6.3 14.1-5.8 16.1-5.8L16.1-5.8Q18.9-5.8 20.35-6.75 21.8-7.7 21.8-9.45L21.8-9.45Q21.8-11.05 20.65-11.95 19.5-12.85 17.45-13.53 15.4-14.2 12.6-15L12.6-15Q9.25-15.95 7-17.13 4.75-18.3 3.65-20.1 2.55-21.9 2.55-24.6L2.55-24.6Q2.55-28.25 4.28-30.73 6-33.2 8.95-34.48 11.9-35.75 15.5-35.75L15.5-35.75Q18-35.75 20.23-35.2 22.45-34.65 24.4-33.75 26.35-32.85 27.9-31.8L27.9-31.8ZM31.8-7.75L31.8-7.75Q31.8-10.3 33.22-12.23 34.65-14.15 37.2-15.2 39.75-16.25 43.05-16.25L43.05-16.25Q44.7-16.25 46.4-16 48.1-15.75 49.35-15.2L49.35-15.2 49.35-16.6Q49.35-19.1 47.87-20.45 46.4-21.8 43.5-21.8L43.5-21.8Q41.35-21.8 39.4-21.05 37.45-20.3 35.3-18.85L35.3-18.85 33.15-23.25Q35.75-24.95 38.47-25.8 41.2-26.65 44.2-26.65L44.2-26.65Q49.8-26.65 52.92-23.85 56.05-21.05 56.05-15.85L56.05-15.85 56.05-7.5Q56.05-6.45 56.42-6 56.8-5.55 57.65-5.45L57.65-5.45 57.65 0Q56.75 0.15 56.02 0.25 55.3 0.35 54.8 0.35L54.8 0.35Q52.8 0.35 51.77-0.55 50.75-1.45 50.5-2.75L50.5-2.75 50.35-4.1Q48.65-1.9 46.1-0.7 43.55 0.5 40.9 0.5L40.9 0.5Q38.3 0.5 36.22-0.58 34.15-1.65 32.97-3.53 31.8-5.4 31.8-7.75ZM48.1-6.4L48.1-6.4Q48.65-7 49-7.6 49.35-8.2 49.35-8.7L49.35-8.7 49.35-11.35Q48.15-11.85 46.75-12.13 45.35-12.4 44.1-12.4L44.1-12.4Q41.5-12.4 39.82-11.28 38.15-10.15 38.15-8.3L38.15-8.3Q38.15-7.3 38.7-6.4 39.25-5.5 40.3-4.95 41.35-4.4 42.8-4.4L42.8-4.4Q44.3-4.4 45.75-4.98 47.2-5.55 48.1-6.4ZM86.65-16.35L86.65 0 79.95 0 79.95-14.7Q79.95-17.85 78.84-19.3 77.75-20.75 75.8-20.75L75.8-20.75Q74.45-20.75 73.07-20.05 71.7-19.35 70.59-18.13 69.5-16.9 69-15.3L69-15.3 69 0 62.3 0 62.3-26.2 68.34-26.2 68.34-21.35Q69.34-23.05 70.9-24.23 72.45-25.4 74.47-26.03 76.5-26.65 78.75-26.65L78.75-26.65Q81.2-26.65 82.77-25.78 84.34-24.9 85.17-23.43 86-21.95 86.32-20.1 86.65-18.25 86.65-16.35L86.65-16.35ZM106.69-6.65L108.04-1.35Q107.19-1 105.99-0.55 104.79-0.1 103.42 0.18 102.04 0.45 100.64 0.45L100.64 0.45Q98.79 0.45 97.24-0.2 95.69-0.85 94.77-2.27 93.84-3.7 93.84-6L93.84-6 93.84-21.05 90.39-21.05 90.39-26.2 93.84-26.2 93.84-34.7 100.54-34.7 100.54-26.2 106.04-26.2 106.04-21.05 100.54-21.05 100.54-8.25Q100.59-6.9 101.29-6.3 101.99-5.7 103.04-5.7L103.04-5.7Q104.09-5.7 105.09-6.05 106.09-6.4 106.69-6.65L106.69-6.65ZM123.29 0.5L123.29 0.5Q120.09 0.5 117.54-0.58 114.99-1.65 113.22-3.55 111.44-5.45 110.49-7.9 109.54-10.35 109.54-13.05L109.54-13.05Q109.54-15.8 110.49-18.25 111.44-20.7 113.22-22.6 114.99-24.5 117.54-25.58 120.09-26.65 123.29-26.65L123.29-26.65Q126.49-26.65 129.02-25.58 131.54-24.5 133.34-22.6 135.14-20.7 136.07-18.25 136.99-15.8 136.99-13.05L136.99-13.05Q136.99-10.35 136.07-7.9 135.14-5.45 133.37-3.55 131.59-1.65 129.04-0.58 126.49 0.5 123.29 0.5ZM116.44-13.05L116.44-13.05Q116.44-10.75 117.34-8.97 118.24-7.2 119.79-6.2 121.34-5.2 123.29-5.2L123.29-5.2Q125.19-5.2 126.74-6.23 128.29-7.25 129.22-9.03 130.14-10.8 130.14-13.1L130.14-13.1Q130.14-15.35 129.22-17.15 128.29-18.95 126.74-19.95 125.19-20.95 123.29-20.95L123.29-20.95Q121.34-20.95 119.79-19.93 118.24-18.9 117.34-17.13 116.44-15.35 116.44-13.05ZM151.14 0.5L151.14 0.5Q147.79 0.5 144.74-0.6 141.69-1.7 139.49-3.85L139.49-3.85 141.89-8.2Q144.24-6.3 146.51-5.4 148.79-4.5 150.89-4.5L150.89-4.5Q152.84-4.5 154.01-5.2 155.19-5.9 155.19-7.3L155.19-7.3Q155.19-8.25 154.54-8.78 153.89-9.3 152.66-9.7 151.44-10.1 149.69-10.6L149.69-10.6Q146.79-11.55 144.84-12.45 142.89-13.35 141.91-14.73 140.94-16.1 140.94-18.25L140.94-18.25Q140.94-20.85 142.26-22.73 143.59-24.6 145.96-25.65 148.34-26.7 151.54-26.7L151.54-26.7Q154.34-26.7 156.84-25.83 159.34-24.95 161.39-23L161.39-23 158.69-18.75Q156.69-20.3 154.89-21.03 153.09-21.75 151.24-21.75L151.24-21.75Q150.19-21.75 149.26-21.5 148.34-21.25 147.76-20.68 147.19-20.1 147.19-19.05L147.19-19.05Q147.19-18.1 147.71-17.57 148.24-17.05 149.31-16.65 150.39-16.25 151.94-15.75L151.94-15.75Q155.09-14.85 157.26-13.9 159.44-12.95 160.54-11.58 161.64-10.2 161.64-7.8L161.64-7.8Q161.64-3.9 158.79-1.7 155.94 0.5 151.14 0.5ZM190.54-16.35L190.54 0 183.84 0 183.84-14.7Q183.84-17.75 182.66-19.25 181.49-20.75 179.44-20.75L179.44-20.75Q178.24-20.75 176.89-20.05 175.54-19.35 174.46-18.13 173.39-16.9 172.89-15.3L172.89-15.3 172.89 0 166.19 0 166.19-36.5 172.89-36.5 172.89-21.35Q174.34-23.85 176.84-25.25 179.34-26.65 182.29-26.65L182.29-26.65Q184.84-26.65 186.44-25.78 188.04-24.9 188.94-23.43 189.84-21.95 190.19-20.13 190.54-18.3 190.54-16.35L190.54-16.35ZM215.93-6.05L233.68-6.05 233.68 0 209.03 0 209.03-35.5 233.23-35.5 233.23-29.45 215.93-29.45 215.93-20.9 230.88-20.9 230.88-15.3 215.93-15.3 215.93-6.05ZM262.63-16.35L262.63 0 255.93 0 255.93-14.7Q255.93-17.85 254.83-19.3 253.73-20.75 251.78-20.75L251.78-20.75Q250.43-20.75 249.05-20.05 247.68-19.35 246.58-18.13 245.48-16.9 244.98-15.3L244.98-15.3 244.98 0 238.28 0 238.28-26.2 244.33-26.2 244.33-21.35Q245.33-23.05 246.88-24.23 248.43-25.4 250.45-26.03 252.48-26.65 254.73-26.65L254.73-26.65Q257.18-26.65 258.75-25.78 260.33-24.9 261.15-23.43 261.98-21.95 262.3-20.1 262.63-18.25 262.63-16.35L262.63-16.35ZM282.68-6.65L284.03-1.35Q283.18-1 281.98-0.55 280.78-0.1 279.4 0.18 278.03 0.45 276.63 0.45L276.63 0.45Q274.78 0.45 273.23-0.2 271.68-0.85 270.75-2.27 269.83-3.7 269.83-6L269.83-6 269.83-21.05 266.38-21.05 266.38-26.2 269.83-26.2 269.83-34.7 276.53-34.7 276.53-26.2 282.03-26.2 282.03-21.05 276.53-21.05 276.53-8.25Q276.58-6.9 277.28-6.3 277.98-5.7 279.03-5.7L279.03-5.7Q280.08-5.7 281.08-6.05 282.08-6.4 282.68-6.65L282.68-6.65ZM299.32 0.5L299.32 0.5Q296.17 0.5 293.62-0.58 291.07-1.65 289.27-3.53 287.47-5.4 286.5-7.83 285.52-10.25 285.52-12.95L285.52-12.95Q285.52-16.7 287.2-19.8 288.87-22.9 292-24.78 295.12-26.65 299.37-26.65L299.37-26.65Q303.67-26.65 306.72-24.78 309.77-22.9 311.4-19.83 313.02-16.75 313.02-13.2L313.02-13.2Q313.02-12.6 312.97-11.98 312.92-11.35 312.87-10.95L312.87-10.95 292.62-10.95Q292.82-8.95 293.8-7.45 294.77-5.95 296.3-5.18 297.82-4.4 299.57-4.4L299.57-4.4Q301.57-4.4 303.35-5.38 305.12-6.35 305.77-7.95L305.77-7.95 311.52-6.35Q310.57-4.35 308.8-2.8 307.02-1.25 304.62-0.38 302.22 0.5 299.32 0.5ZM292.47-15.2L292.47-15.2 306.17-15.2Q305.97-17.2 305.05-18.68 304.12-20.15 302.62-20.98 301.12-21.8 299.27-21.8L299.27-21.8Q297.47-21.8 296-20.98 294.52-20.15 293.6-18.68 292.67-17.2 292.47-15.2ZM332.72-26.5L332.72-20.4Q329.67-20.4 327.27-19.23 324.87-18.05 323.82-15.85L323.82-15.85 323.82 0 317.12 0 317.12-26.2 323.27-26.2 323.27-20.6Q324.67-23.3 326.82-24.85 328.97-26.4 331.37-26.55L331.37-26.55Q331.92-26.55 332.22-26.55 332.52-26.55 332.72-26.5L332.72-26.5ZM352.17 0.5L352.17 0.5Q349.12 0.5 346.79-0.88 344.47-2.25 343.17-4.6L343.17-4.6 343.17 10.65 336.47 10.65 336.47-26.2 342.32-26.2 342.32-21.7Q343.82-24 346.12-25.33 348.42-26.65 351.37-26.65L351.37-26.65Q354.02-26.65 356.24-25.6 358.47-24.55 360.12-22.68 361.77-20.8 362.69-18.38 363.62-15.95 363.62-13.15L363.62-13.15Q363.62-9.35 362.14-6.25 360.67-3.15 358.09-1.33 355.52 0.5 352.17 0.5ZM349.92-5.2L349.92-5.2Q351.47-5.2 352.72-5.85 353.97-6.5 354.89-7.63 355.82-8.75 356.29-10.18 356.77-11.6 356.77-13.15L356.77-13.15Q356.77-14.8 356.24-16.2 355.72-17.6 354.72-18.68 353.72-19.75 352.39-20.35 351.07-20.95 349.52-20.95L349.52-20.95Q348.57-20.95 347.59-20.63 346.62-20.3 345.72-19.7 344.82-19.1 344.14-18.3 343.47-17.5 343.17-16.55L343.17-16.55 343.17-10.4Q343.77-8.95 344.79-7.75 345.82-6.55 347.17-5.88 348.52-5.2 349.92-5.2ZM383.77-26.5L383.77-20.4Q380.72-20.4 378.32-19.23 375.92-18.05 374.87-15.85L374.87-15.85 374.87 0 368.17 0 368.17-26.2 374.32-26.2 374.32-20.6Q375.72-23.3 377.87-24.85 380.02-26.4 382.42-26.55L382.42-26.55Q382.97-26.55 383.27-26.55 383.57-26.55 383.77-26.5L383.77-26.5ZM394.21 0L387.51 0 387.51-26.2 394.21-26.2 394.21 0ZM394.21-29.85L387.51-29.85 387.51-36.5 394.21-36.5 394.21-29.85ZM409.91 0.5L409.91 0.5Q406.56 0.5 403.51-0.6 400.46-1.7 398.26-3.85L398.26-3.85 400.66-8.2Q403.01-6.3 405.29-5.4 407.56-4.5 409.66-4.5L409.66-4.5Q411.61-4.5 412.79-5.2 413.96-5.9 413.96-7.3L413.96-7.3Q413.96-8.25 413.31-8.78 412.66-9.3 411.44-9.7 410.21-10.1 408.46-10.6L408.46-10.6Q405.56-11.55 403.61-12.45 401.66-13.35 400.69-14.73 399.71-16.1 399.71-18.25L399.71-18.25Q399.71-20.85 401.04-22.73 402.36-24.6 404.74-25.65 407.11-26.7 410.31-26.7L410.31-26.7Q413.11-26.7 415.61-25.83 418.11-24.95 420.16-23L420.16-23 417.46-18.75Q415.46-20.3 413.66-21.03 411.86-21.75 410.01-21.75L410.01-21.75Q408.96-21.75 408.04-21.5 407.11-21.25 406.54-20.68 405.96-20.1 405.96-19.05L405.96-19.05Q405.96-18.1 406.49-17.57 407.01-17.05 408.09-16.65 409.16-16.25 410.71-15.75L410.71-15.75Q413.86-14.85 416.04-13.9 418.21-12.95 419.31-11.58 420.41-10.2 420.41-7.8L420.41-7.8Q420.41-3.9 417.56-1.7 414.71 0.5 409.91 0.5ZM437.11 0.5L437.11 0.5Q433.96 0.5 431.41-0.58 428.86-1.65 427.06-3.53 425.26-5.4 424.28-7.83 423.31-10.25 423.31-12.95L423.31-12.95Q423.31-16.7 424.98-19.8 426.66-22.9 429.78-24.78 432.91-26.65 437.16-26.65L437.16-26.65Q441.46-26.65 444.51-24.78 447.56-22.9 449.18-19.83 450.81-16.75 450.81-13.2L450.81-13.2Q450.81-12.6 450.76-11.98 450.71-11.35 450.66-10.95L450.66-10.95 430.41-10.95Q430.61-8.95 431.58-7.45 432.56-5.95 434.08-5.18 435.61-4.4 437.36-4.4L437.36-4.4Q439.36-4.4 441.13-5.38 442.91-6.35 443.56-7.95L443.56-7.95 449.31-6.35Q448.36-4.35 446.58-2.8 444.81-1.25 442.41-0.38 440.01 0.5 437.11 0.5ZM430.26-15.2L430.26-15.2 443.96-15.2Q443.76-17.2 442.83-18.68 441.91-20.15 440.41-20.98 438.91-21.8 437.06-21.8L437.06-21.8Q435.26-21.8 433.78-20.98 432.31-20.15 431.38-18.68 430.46-17.2 430.26-15.2ZM464.56 0.5L464.56 0.5Q461.21 0.5 458.16-0.6 455.11-1.7 452.91-3.85L452.91-3.85 455.31-8.2Q457.66-6.3 459.93-5.4 462.21-4.5 464.31-4.5L464.31-4.5Q466.26-4.5 467.43-5.2 468.61-5.9 468.61-7.3L468.61-7.3Q468.61-8.25 467.96-8.78 467.31-9.3 466.08-9.7 464.86-10.1 463.11-10.6L463.11-10.6Q460.21-11.55 458.26-12.45 456.31-13.35 455.33-14.73 454.36-16.1 454.36-18.25L454.36-18.25Q454.36-20.85 455.68-22.73 457.01-24.6 459.38-25.65 461.76-26.7 464.96-26.7L464.96-26.7Q467.76-26.7 470.26-25.83 472.76-24.95 474.81-23L474.81-23 472.11-18.75Q470.11-20.3 468.31-21.03 466.51-21.75 464.66-21.75L464.66-21.75Q463.61-21.75 462.68-21.5 461.76-21.25 461.18-20.68 460.61-20.1 460.61-19.05L460.61-19.05Q460.61-18.1 461.13-17.57 461.66-17.05 462.73-16.65 463.81-16.25 465.36-15.75L465.36-15.75Q468.51-14.85 470.68-13.9 472.86-12.95 473.96-11.58 475.06-10.2 475.06-7.8L475.06-7.8Q475.06-3.9 472.21-1.7 469.36 0.5 464.56 0.5Z" opacity="1" transform="matrix(1,0,0,1,0,0)" fill="#454545" class="undefined-text-0" data-fill-palette-color="primary" id="text-0"></path></svg></g></svg></g></svg></g></svg></g></svg></g></svg></g></svg></g></svg></g><defs></defs></svg><rect width="395.52" height="247.2" fill="none" stroke="none" visibility="hidden"></rect></g></svg></g></svg>